<?xml version="1.0" encoding="UTF-8"?>
<svg version="1.1" xmlns="http://www.w3.org/2000/svg" width="500" height="158">
<path d="M0 0 C7.01163355 2.79509753 10.90029517 7.12246979 14.0703125 13.8671875 C15.96286551 19.13564587 15.74705112 24.31895893 15.60546875 29.8515625 C15.58516602 31.37136719 15.58516602 31.37136719 15.56445312 32.921875 C15.52939938 35.39900654 15.48026639 37.87499177 15.41796875 40.3515625 C16.1567627 40.18624023 16.89555664 40.02091797 17.65673828 39.85058594 C21.59385157 39.13905105 25.3145496 39.38598314 29.29296875 39.6015625 C30.07027344 39.62863281 30.84757812 39.65570313 31.6484375 39.68359375 C40.73144948 40.15682631 47.29177118 43.5756167 53.41796875 50.3515625 C58.05596297 56.72563653 57.64004687 62.88979274 56.97265625 70.5078125 C56.69808594 71.91546875 56.69808594 71.91546875 56.41796875 73.3515625 C55.42796875 73.8465625 55.42796875 73.8465625 54.41796875 74.3515625 C53.75796875 73.6915625 53.09796875 73.0315625 52.41796875 72.3515625 C52.74796875 73.0115625 53.07796875 73.6715625 53.41796875 74.3515625 C54.4469314 83.46523165 51.05922305 90.17714849 45.859375 97.56640625 C41.80254719 102.55050899 38.12502167 105.26996207 31.66796875 106.2265625 C24.40746709 106.72208635 18.9299407 104.87452237 13.29296875 100.2890625 C6.29135028 93.66178799 1.67585377 85.30573388 -2.90625 76.91796875 C-4.69461515 74.1791438 -5.64553918 72.7903454 -8.58203125 71.3515625 C-11.49213593 71.12424042 -14.35890753 71.31370547 -17.26953125 71.4765625 C-26.23569199 71.73790398 -31.22356789 70.05625635 -38.08203125 64.2265625 C-39.58203125 62.3515625 -39.58203125 62.3515625 -40.58203125 59.3515625 C-41.91051816 58.34513302 -43.24353454 57.34464071 -44.58203125 56.3515625 C-44.58203125 55.6915625 -44.58203125 55.0315625 -44.58203125 54.3515625 C-45.17371094 54.33738281 -45.76539062 54.32320312 -46.375 54.30859375 C-50.65833879 54.05005617 -52.96345593 53.84642276 -56.39453125 51.1015625 C-57.11640625 50.1940625 -57.83828125 49.2865625 -58.58203125 48.3515625 C-59.28328125 47.5059375 -59.98453125 46.6603125 -60.70703125 45.7890625 C-61.32578125 44.9846875 -61.94453125 44.1803125 -62.58203125 43.3515625 C-63.41734375 42.4853125 -63.41734375 42.4853125 -64.26953125 41.6015625 C-66.87935132 37.12758524 -67.11047173 32.57163788 -65.921875 27.578125 C-64.14155069 22.54708708 -64.14155069 22.54708708 -62.58203125 20.3515625 C-59.2794451 19.21924725 -57.93202804 19.2348969 -54.58203125 20.3515625 C-53.88078125 19.3409375 -53.17953125 18.3303125 -52.45703125 17.2890625 C-51.09375 15.62109375 -51.09375 15.62109375 -49.58203125 14.3515625 C-46.26953125 14.4765625 -46.26953125 14.4765625 -43.58203125 15.3515625 C-43.58203125 16.0115625 -43.58203125 16.6715625 -43.58203125 17.3515625 C-42.69515625 17.3721875 -41.80828125 17.3928125 -40.89453125 17.4140625 C-37.13915422 18.47690506 -35.70846284 19.85696201 -33.6171875 23.125 C-30.79846278 29.18791733 -29.92172546 36.74850464 -30.58203125 43.3515625 C-32.01953125 46.1015625 -32.01953125 46.1015625 -33.58203125 48.3515625 C-34.69316262 51.68495662 -34.93155059 53.85636906 -34.58203125 57.3515625 C-31.98044559 61.65418494 -29.20245501 63.50232715 -24.58203125 65.3515625 C-21.7117808 65.62463591 -18.89542049 65.50226412 -16.01953125 65.3515625 C-7.03435466 64.88317797 -7.03435466 64.88317797 -2.58203125 68.3515625 C0.93670672 71.96289884 3.29764356 75.78610357 5.79296875 80.1640625 C12.8076568 92.64608869 12.8076568 92.64608869 24.41796875 100.3515625 C29.47261291 100.63752861 35.01517434 99.96572168 39.41796875 97.3515625 C40.12330672 96.03827633 40.78221884 94.69991122 41.41796875 93.3515625 C42.966433 90.63250856 44.51622577 87.91449041 46.078125 85.203125 C47.48305768 82.21303503 48.02770644 79.61820257 48.41796875 76.3515625 C43.87441119 74.17101982 39.48872753 73.75602659 34.54296875 73.2890625 C32.98296876 73.13254509 31.42307084 72.9750067 29.86328125 72.81640625 C29.11393311 72.74236572 28.36458496 72.6683252 27.5925293 72.59204102 C25.55736803 72.36697827 23.53157074 72.06134742 21.5078125 71.75 C18.48091492 71.16046103 18.48091492 71.16046103 15.85546875 72.0390625 C13.41796875 72.3515625 13.41796875 72.3515625 10.23046875 70.6640625 C6.15922749 67.31659747 6.15922749 67.31659747 5.41796875 64.3515625 C5.56999467 61.62558052 5.96752384 59.05423196 6.41796875 56.3515625 C7.40796875 56.0215625 8.39796875 55.6915625 9.41796875 55.3515625 C9.41796875 54.6915625 9.41796875 54.0315625 9.41796875 53.3515625 C12.88296875 52.8565625 12.88296875 52.8565625 16.41796875 52.3515625 C13.40306318 51.34659398 11.37615183 51.24820947 8.23046875 51.2890625 C7.32941406 51.29808594 6.42835937 51.30710938 5.5 51.31640625 C4.81292969 51.32800781 4.12585938 51.33960938 3.41796875 51.3515625 C3.42844238 50.44390137 3.43891602 49.53624023 3.44970703 48.60107422 C3.48392262 45.21286446 3.50893245 41.82484006 3.52783203 38.43652344 C3.5378498 36.97392874 3.55146787 35.51135387 3.56884766 34.04882812 C3.59328314 31.93875211 3.60449412 29.82894238 3.61328125 27.71875 C3.62375488 26.45144043 3.63422852 25.18413086 3.64501953 23.87841797 C3.41693347 20.33548108 2.77659943 17.62116721 1.41796875 14.3515625 C-1.85624026 11.70700907 -6.45451124 11.28793984 -10.58203125 11.3515625 C-14.82277214 12.8718281 -17.33161228 14.45411236 -19.58203125 18.3515625 C-19.90604677 20.96198228 -20.0699423 23.3484319 -20.09375 25.9609375 C-20.1117012 26.68774719 -20.1296524 27.41455688 -20.14814758 28.16339111 C-20.20216366 30.47605657 -20.23611685 32.78851671 -20.26953125 35.1015625 C-20.30271218 36.6732056 -20.33720257 38.24482164 -20.37304688 39.81640625 C-20.45788453 43.66130996 -20.52473631 47.50615372 -20.58203125 51.3515625 C-24.87203125 51.3515625 -29.16203125 51.3515625 -33.58203125 51.3515625 C-31.58203125 47.3515625 -31.58203125 47.3515625 -30.58203125 46.3515625 C-28.97576947 38.46627738 -30.52766926 31.56901046 -32.45703125 23.8515625 C-32.68913309 17.3527111 -30.2601347 11.48320742 -26.26953125 6.4140625 C-18.04481264 0.10206915 -10.38429715 -2.60785677 0 0 Z M-53.58203125 22.3515625 C-54.24203125 24.3315625 -54.90203125 26.3115625 -55.58203125 28.3515625 C-57.23203125 28.6815625 -58.88203125 29.0115625 -60.58203125 29.3515625 C-61.34879798 35.35790185 -59.76262299 38.47535815 -56.2265625 43.328125 C-53.32648541 46.89639088 -51.25809967 49.06627426 -46.64453125 49.8515625 C-42.77913697 49.22047772 -40.62891072 47.77521662 -37.58203125 45.3515625 C-35.20345402 41.78369665 -35.08743048 39.46339279 -35.58203125 35.3515625 C-36.8588496 28.24048423 -36.8588496 28.24048423 -40.58203125 22.3515625 C-42.44383465 22.5642947 -42.44383465 22.5642947 -44.58203125 23.3515625 C-45.65453125 23.7021875 -46.72703125 24.0528125 -47.83203125 24.4140625 C-48.73953125 24.7234375 -49.64703125 25.0328125 -50.58203125 25.3515625 C-50.58203125 24.6915625 -50.58203125 24.0315625 -50.58203125 23.3515625 C-51.57203125 23.0215625 -52.56203125 22.6915625 -53.58203125 22.3515625 Z M19.41796875 51.3515625 C19.08796875 52.0115625 18.75796875 52.6715625 18.41796875 53.3515625 C19.05734375 53.6815625 19.69671875 54.0115625 20.35546875 54.3515625 C23.49205943 57.39310498 23.14467204 60.0471393 23.41796875 64.3515625 C23.41796875 65.0115625 23.41796875 65.6715625 23.41796875 66.3515625 C29.97073582 68.63741148 36.52198314 68.95750618 43.41796875 69.3515625 C45.77417312 65.81725594 45.90788488 64.51584963 45.41796875 60.3515625 C43.51092939 56.29910385 41.96887945 54.657624 38.04296875 52.4765625 C32.06011677 50.53156689 25.62447416 51.11620345 19.41796875 51.3515625 Z " fill="#F2FDFA" transform="translate(115.58203125,14.6484375)"/>
<path d="M0 0 C2 1.375 2 1.375 4 3 C4 3.66 4 4.32 4 5 C4.66 5 5.32 5 6 5 C6.66 6.65 7.32 8.3 8 10 C7.34 10 6.68 10 6 10 C3.49968337 14.83394548 2.62081425 18.50180668 3 24 C4.39435899 27.40843309 5.50853966 28.69989396 8.65673828 30.62231445 C12.49192547 32.2027118 15.23088035 32.34424528 19.3671875 32.29296875 C20.04677521 32.28872391 20.72636292 32.28447906 21.42654419 32.28010559 C23.57644924 32.26344266 25.72538299 32.22581716 27.875 32.1875 C29.3411322 32.172437 30.80727924 32.15875143 32.2734375 32.14648438 C35.84926875 32.1135808 39.42453941 32.06188663 43 32 C44.10669969 35.32009907 44.06853541 37.68009568 43.9921875 41.171875 C43.97542969 42.39390625 43.95867187 43.6159375 43.94140625 44.875 C43.89740059 47.44285947 43.8454146 50.01059551 43.78515625 52.578125 C43.64679394 61.71525786 43.64679394 61.71525786 47 70 C49.6572247 72.53069019 51.50957745 73.87119805 55.21484375 74.19140625 C59.49722007 73.95626745 61.57519513 73.33630386 65 70.625 C68.31078521 66.27959441 68.28208331 62.07605913 68.5625 56.8125 C68.62727539 55.68811523 68.62727539 55.68811523 68.69335938 54.54101562 C68.79922685 52.69421625 68.9000976 50.84713166 69 49 C70.7074998 50.28062485 72.37373596 51.61767557 74 53 C74 53.66 74 54.32 74 55 C74.66 55 75.32 55 76 55 C76 55.66 76 56.32 76 57 C77.32 57.66 78.64 58.32 80 59 C80.43846243 67.18463211 78.99071286 72.84564513 73.8125 79.3125 C68.58666459 84.85406296 63.61215013 86.1165352 56.125 86.5 C49.86187482 86.30230034 44.99857458 84.83342642 40 81 C32.77970989 72.98577758 31.68993987 64.47569094 31.875 54.0625 C31.88402344 53.09248047 31.89304688 52.12246094 31.90234375 51.12304688 C31.92573893 48.74843593 31.95851824 46.37435224 32 44 C31.41621582 44.05124023 30.83243164 44.10248047 30.23095703 44.15527344 C8.24314666 45.9698647 8.24314666 45.9698647 1 41 C-1.875 38.5625 -1.875 38.5625 -4 36 C-4.7425 35.13375 -5.485 34.2675 -6.25 33.375 C-10.50751431 27.59694486 -9.54757974 19.85541387 -9 13 C-7.98915526 9.87476823 -6.80938571 7.77062186 -5 5 C-4.34 5 -3.68 5 -3 5 C-2.690625 4.360625 -2.38125 3.72125 -2.0625 3.0625 C-1 1 -1 1 0 0 Z " fill="#F7FDFC" transform="translate(51,59)"/>
<path d="M0 0 C0.67813248 -0.00095673 1.35626495 -0.00191345 2.0549469 -0.00289917 C3.48983859 -0.0035799 4.92473336 -0.00173304 6.35961914 0.00244141 C8.55426984 0.00778296 10.74871512 0.00249716 12.94335938 -0.00390625 C14.33724003 -0.00324529 15.73112057 -0.00196375 17.125 0 C18.39529053 0.00112793 19.66558105 0.00225586 20.97436523 0.00341797 C24.12890625 0.1328125 24.12890625 0.1328125 27.12890625 1.1328125 C27.93328125 0.9678125 28.73765625 0.8028125 29.56640625 0.6328125 C35.77193884 -0.23813944 43.22391889 -0.48149015 48.75390625 2.8828125 C51.30726415 5.30178314 52.37716495 6.70821326 53.12890625 10.1328125 C52.83144241 14.09899709 51.46315971 16.93402073 49.12890625 20.1328125 C46.12835871 22.01868579 43.89170444 22.36113009 40.37890625 22.2578125 C39.5796875 22.23976563 38.78046875 22.22171875 37.95703125 22.203125 C37.35375 22.17992188 36.75046875 22.15671875 36.12890625 22.1328125 C36.12890625 24.1128125 36.12890625 26.0928125 36.12890625 28.1328125 C33.15890625 28.1328125 30.18890625 28.1328125 27.12890625 28.1328125 C26.79890625 21.5328125 26.46890625 14.9328125 26.12890625 8.1328125 C25.46890625 8.4628125 24.80890625 8.7928125 24.12890625 9.1328125 C21.81890625 8.8028125 19.50890625 8.4728125 17.12890625 8.1328125 C17.45890625 14.7328125 17.78890625 21.3328125 18.12890625 28.1328125 C14.82890625 28.1328125 11.52890625 28.1328125 8.12890625 28.1328125 C8.12890625 21.8628125 8.12890625 15.5928125 8.12890625 9.1328125 C5.81890625 9.1328125 3.50890625 9.1328125 1.12890625 9.1328125 C1.12890625 7.1528125 1.12890625 5.1728125 1.12890625 3.1328125 C0.46890625 3.1328125 -0.19109375 3.1328125 -0.87109375 3.1328125 C-0.54109375 11.3828125 -0.21109375 19.6328125 0.12890625 28.1328125 C-8.87109375 28.1328125 -8.87109375 28.1328125 -11.5 25.9453125 C-12.13808594 25.0171875 -12.77617187 24.0890625 -13.43359375 23.1328125 C-14.09488281 22.2046875 -14.75617188 21.2765625 -15.4375 20.3203125 C-15.91058594 19.5984375 -16.38367188 18.8765625 -16.87109375 18.1328125 C-17.20109375 21.4328125 -17.53109375 24.7328125 -17.87109375 28.1328125 C-20.84109375 28.1328125 -23.81109375 28.1328125 -26.87109375 28.1328125 C-26.87109375 19.2228125 -26.87109375 10.3128125 -26.87109375 1.1328125 C-18.87109375 1.1328125 -18.87109375 1.1328125 -16.8828125 2.84765625 C-16.22732422 3.94787109 -16.22732422 3.94787109 -15.55859375 5.0703125 C-13.54411274 8.54912556 -13.54411274 8.54912556 -9.87109375 10.1328125 C-9.82210938 9.49472656 -9.773125 8.85664062 -9.72265625 8.19921875 C-9.64789063 7.37292969 -9.573125 6.54664062 -9.49609375 5.6953125 C-9.42648437 4.87160156 -9.356875 4.04789062 -9.28515625 3.19921875 C-9.14851563 2.51730469 -9.011875 1.83539063 -8.87109375 1.1328125 C-5.92508515 -0.3401918 -3.28500963 0.00291945 0 0 Z M36.12890625 8.1328125 C36.12890625 10.4428125 36.12890625 12.7528125 36.12890625 15.1328125 C38.10890625 14.8028125 40.08890625 14.4728125 42.12890625 14.1328125 C42.45890625 12.4828125 42.78890625 10.8328125 43.12890625 9.1328125 C40.81890625 8.8028125 38.50890625 8.4728125 36.12890625 8.1328125 Z M-9.87109375 12.1328125 C-8.87109375 14.1328125 -8.87109375 14.1328125 -8.87109375 14.1328125 Z " fill="#F6FDFB" transform="translate(333.87109375,63.8671875)"/>
<path d="M0 0 C0 8.58 0 17.16 0 26 C-3.3 26 -6.6 26 -10 26 C-10.495 16.1 -10.495 16.1 -11 6 C-13.64 6 -16.28 6 -19 6 C-19 12.6 -19 19.2 -19 26 C-22.3 26 -25.6 26 -29 26 C-28.67 19.4 -28.34 12.8 -28 6 C-30.64 6 -33.28 6 -36 6 C-37.125 1.25 -37.125 1.25 -36 -1 C-34.84999512 -0.99214478 -34.84999512 -0.99214478 -33.67675781 -0.98413086 C-30.20118022 -0.96333636 -26.72561573 -0.95033191 -23.25 -0.9375 C-21.44015625 -0.92493164 -21.44015625 -0.92493164 -19.59375 -0.91210938 C-18.43359375 -0.90888672 -17.2734375 -0.90566406 -16.078125 -0.90234375 C-15.00981445 -0.89710693 -13.94150391 -0.89187012 -12.84082031 -0.88647461 C-10.10195175 -0.87171117 -10.10195175 -0.87171117 -7.99511719 -1.63110352 C-6 -2 -6 -2 0 0 Z " fill="#F7FDFB" transform="translate(279,66)"/>
<path d="M0 0 C3.68415673 3.78966957 5.1871662 7.19889386 5.4296875 12.48046875 C5.06834885 17.08543571 3.16143592 19.76873012 -0.11328125 22.87109375 C-4.60931178 25.86844743 -8.29686634 27.4424394 -13.73828125 26.62109375 C-22.73017776 22.47844805 -22.73017776 22.47844805 -25.02734375 18.24609375 C-25.77924189 15.46985448 -25.93980094 13.17808202 -25.86328125 10.30859375 C-25.84523438 9.42558594 -25.8271875 8.54257813 -25.80859375 7.6328125 C-25.78539062 6.96894531 -25.7621875 6.30507812 -25.73828125 5.62109375 C-25.07828125 5.62109375 -24.41828125 5.62109375 -23.73828125 5.62109375 C-23.53203125 4.85796875 -23.32578125 4.09484375 -23.11328125 3.30859375 C-21.25823177 -0.31718479 -19.51106609 -0.95521386 -15.73828125 -2.37890625 C-9.938689 -3.74971896 -4.87275207 -3.86535164 0 0 Z M-15.11328125 6.68359375 C-17.22644791 10.50354887 -16.91169126 12.47504504 -15.73828125 16.62109375 C-12.92229938 18.92370134 -12.92229938 18.92370134 -9.73828125 18.49609375 C-6.71993599 17.84326403 -6.71993599 17.84326403 -4.80078125 15.93359375 C-3.33718636 12.74812251 -3.74899157 10.94228052 -4.73828125 7.62109375 C-6.38452677 5.15172547 -7.26403979 4.71837405 -10.17578125 4.12109375 C-12.92429388 4.43618105 -12.92429388 4.43618105 -15.11328125 6.68359375 Z " fill="#F4FDFA" transform="translate(440.73828125,67.37890625)"/>
<path d="M0 0 C0.70769531 0.03158203 1.41539062 0.06316406 2.14453125 0.09570312 C6.56497962 0.37969841 9.5874221 1.11941908 13.125 3.8125 C16.0140388 8.27737815 14.92916376 12.82451127 14.125 17.8125 C12.805 18.1425 11.485 18.4725 10.125 18.8125 C10.4859375 19.29460937 10.846875 19.77671875 11.21875 20.2734375 C11.6828125 20.90507813 12.146875 21.53671875 12.625 22.1875 C13.0890625 22.81398438 13.553125 23.44046875 14.03125 24.0859375 C15.125 25.8125 15.125 25.8125 15.125 27.8125 C13.5223218 27.92074843 11.91754252 27.99820645 10.3125 28.0625 C9.41917969 28.10890625 8.52585937 28.1553125 7.60546875 28.203125 C5.125 27.8125 5.125 27.8125 3.30078125 25.921875 C2.125 23.8125 2.125 23.8125 2.125 21.8125 C1.135 21.8125 0.145 21.8125 -0.875 21.8125 C-0.875 23.7925 -0.875 25.7725 -0.875 27.8125 C-4.1580098 29.4540049 -7.30045033 28.33138624 -10.875 27.8125 C-10.9617562 23.52095978 -11.0153089 19.22964332 -11.0625 14.9375 C-11.08763672 13.71417969 -11.11277344 12.49085937 -11.13867188 11.23046875 C-11.14833984 10.06386719 -11.15800781 8.89726563 -11.16796875 7.6953125 C-11.1836792 6.61652832 -11.19938965 5.53774414 -11.21557617 4.42626953 C-11.10318604 3.56372559 -10.9907959 2.70118164 -10.875 1.8125 C-7.09409307 -0.70810462 -4.334484 -0.3084903 0 0 Z M-1.875 7.8125 C-1.875 10.1225 -1.875 12.4325 -1.875 14.8125 C0.105 14.8125 2.085 14.8125 4.125 14.8125 C4.455 12.8325 4.785 10.8525 5.125 8.8125 C1.65352158 8.06292843 1.65352158 8.06292843 -1.875 7.8125 Z " fill="#F4FDFB" transform="translate(398.875,64.1875)"/>
<path d="M0 0 C0.91644287 0.00523682 1.83288574 0.01047363 2.77709961 0.01586914 C3.76645508 0.0190918 4.75581055 0.02231445 5.77514648 0.02563477 C6.81606445 0.03401367 7.85698242 0.04239258 8.92944336 0.05102539 C10.49662109 0.05779297 10.49662109 0.05779297 12.09545898 0.06469727 C14.68600996 0.07652627 17.27644895 0.0930085 19.86694336 0.11352539 C20.80117981 3.12384283 20.91144247 3.98002807 19.86694336 7.11352539 C13.43194336 7.60852539 13.43194336 7.60852539 6.86694336 8.11352539 C6.86694336 8.77352539 6.86694336 9.43352539 6.86694336 10.11352539 C7.52694336 9.78352539 8.18694336 9.45352539 8.86694336 9.11352539 C10.40718332 9.04401998 11.95029324 9.02900182 13.49194336 9.05102539 C14.7178418 9.06456055 14.7178418 9.06456055 15.96850586 9.07836914 C16.90823242 9.09577148 16.90823242 9.09577148 17.86694336 9.11352539 C18.86694336 11.11352539 18.86694336 11.11352539 18.86694336 17.11352539 C14.90694336 17.44352539 10.94694336 17.77352539 6.86694336 18.11352539 C7.19694336 18.77352539 7.52694336 19.43352539 7.86694336 20.11352539 C8.7215918 20.10192383 9.57624023 20.09032227 10.45678711 20.07836914 C11.56151367 20.0693457 12.66624023 20.06032227 13.80444336 20.05102539 C14.9065918 20.03942383 16.00874023 20.02782227 17.14428711 20.01586914 C19.86694336 20.11352539 19.86694336 20.11352539 20.86694336 21.11352539 C20.90775119 23.11310903 20.90948692 25.11397793 20.86694336 27.11352539 C18.31711903 28.38843756 16.70228912 28.13949155 13.85913086 27.99243164 C12.87299805 27.9440918 11.88686523 27.89575195 10.87084961 27.84594727 C9.83831055 27.78987305 8.80577148 27.73379883 7.74194336 27.67602539 C6.70166992 27.62381836 5.66139648 27.57161133 4.58959961 27.51782227 C2.0150922 27.38791593 -0.5590496 27.25294287 -3.13305664 27.11352539 C-3.16192201 22.8010393 -3.17980919 18.48857777 -3.19555664 14.17602539 C-3.20393555 12.94432617 -3.21231445 11.71262695 -3.22094727 10.44360352 C-3.22416992 9.2737793 -3.22739258 8.10395508 -3.23071289 6.89868164 C-3.23594971 5.81466064 -3.24118652 4.73063965 -3.24658203 3.61376953 C-3.08996336 0.16445381 -3.08996336 0.16445381 0 0 Z " fill="#F5FDFB" transform="translate(284.133056640625,64.886474609375)"/>
<path d="M0 0 C0.70125 0.00515625 1.4025 0.0103125 2.125 0.015625 C2.82625 0.01046875 3.5275 0.0053125 4.25 0 C6.125 0.265625 6.125 0.265625 8.125 2.265625 C8.94703213 4.22408049 9.70916932 6.20792598 10.4375 8.203125 C12.47688934 13.65970541 14.7312884 18.94732215 17.20703125 24.21875 C18.125 26.265625 18.125 26.265625 18.125 27.265625 C14.825 27.265625 11.525 27.265625 8.125 27.265625 C7.63 24.790625 7.63 24.790625 7.125 22.265625 C2.175 22.760625 2.175 22.760625 -2.875 23.265625 C-3.205 24.585625 -3.535 25.905625 -3.875 27.265625 C-7.175 27.265625 -10.475 27.265625 -13.875 27.265625 C-12.05699393 21.27689911 -9.80059571 15.56365779 -7.3125 9.828125 C-7.00755615 9.11785156 -6.7026123 8.40757813 -6.38842773 7.67578125 C-3.21661986 0.45568781 -3.21661986 0.45568781 0 0 Z M1.125 11.265625 C0.465 12.915625 -0.195 14.565625 -0.875 16.265625 C0.775 16.265625 2.425 16.265625 4.125 16.265625 C3.795 14.615625 3.465 12.965625 3.125 11.265625 C2.465 11.265625 1.805 11.265625 1.125 11.265625 Z " fill="#F3FDFA" transform="translate(226.875,64.734375)"/>
<path d="M0 0 C0.75603516 -0.02900391 1.51207031 -0.05800781 2.29101562 -0.08789062 C7.58112468 -0.14753626 10.70040791 0.67899749 14.8125 4.3125 C16.39172276 7.22717287 16.82395927 10.00650177 16.8125 13.3125 C15.0848121 17.27178477 13.86927706 18.8300583 9.9375 20.625 C6.90372806 21.29242983 3.88767989 21.87318859 0.8125 22.3125 C0.8125 23.9625 0.8125 25.6125 0.8125 27.3125 C-2.4875 27.3125 -5.7875 27.3125 -9.1875 27.3125 C-9.21636537 23.00001391 -9.23425255 18.68755238 -9.25 14.375 C-9.25837891 13.14330078 -9.26675781 11.91160156 -9.27539062 10.64257812 C-9.27861328 9.47275391 -9.28183594 8.30292969 -9.28515625 7.09765625 C-9.29039307 6.01363525 -9.29562988 4.92961426 -9.30102539 3.81274414 C-9.05891724 -1.51936246 -4.23654622 0.05282477 0 0 Z M-0.1875 7.3125 C-0.1875 9.6225 -0.1875 11.9325 -0.1875 14.3125 C2.22895782 14.47937448 2.22895782 14.47937448 4.8125 14.3125 C5.4725 13.6525 6.1325 12.9925 6.8125 12.3125 C6.49208603 9.70969432 6.49208603 9.70969432 5.8125 7.3125 C3.8325 7.3125 1.8525 7.3125 -0.1875 7.3125 Z " fill="#F3FDFA" transform="translate(197.1875,64.6875)"/>
<path d="M0 0 C-0.66 0.66 -1.32 1.32 -2 2 C-3.9375 1.625 -3.9375 1.625 -6 1 C-6.99 1 -7.98 1 -9 1 C-9 8.92 -9 16.84 -9 25 C-5.535 24.505 -5.535 24.505 -2 24 C-2 17.73 -2 11.46 -2 5 C-1.67 5 -1.34 5 -1 5 C-0.505 15.395 -0.505 15.395 0 26 C-3.3 26 -6.6 26 -10 26 C-10.495 16.1 -10.495 16.1 -11 6 C-13.64 6 -16.28 6 -19 6 C-19 5.67 -19 5.34 -19 5 C-16.69 5 -14.38 5 -12 5 C-12 3.68 -12 2.36 -12 1 C-19.92 1 -27.84 1 -36 1 C-36 0.34 -36 -0.32 -36 -1 C-35.23333008 -0.99476318 -34.46666016 -0.98952637 -33.67675781 -0.98413086 C-30.20118022 -0.96333636 -26.72561573 -0.95033191 -23.25 -0.9375 C-21.44015625 -0.92493164 -21.44015625 -0.92493164 -19.59375 -0.91210938 C-18.43359375 -0.90888672 -17.2734375 -0.90566406 -16.078125 -0.90234375 C-15.00981445 -0.89710693 -13.94150391 -0.89187012 -12.84082031 -0.88647461 C-10.08416214 -0.89597843 -10.08416214 -0.89597843 -7.82324219 -1.56469727 C-4.92599063 -2.2564219 -2.70375447 -1.04463241 0 0 Z " fill="#DBFEF7" transform="translate(279,66)"/>
<path d="M0 0 C-0.33 0.66 -0.66 1.32 -1 2 C-1.15306901 3.81171098 -1.24946661 5.6283794 -1.31640625 7.4453125 C-1.35830078 8.52167969 -1.40019531 9.59804687 -1.44335938 10.70703125 C-1.48267578 11.83496094 -1.52199219 12.96289062 -1.5625 14.125 C-1.60568359 15.26066406 -1.64886719 16.39632812 -1.69335938 17.56640625 C-1.7996604 20.37747768 -1.90169405 23.18863945 -2 26 C0.31 26 2.62 26 5 26 C5 24.35 5 22.7 5 21 C5.33 21 5.66 21 6 21 C6 22.98 6 24.96 6 27 C3.03 27 0.06 27 -3 27 C-3.495 17.1 -3.495 17.1 -4 7 C-4.99 7.495 -4.99 7.495 -6 8 C-8.31 7.67 -10.62 7.34 -13 7 C-13 12.28 -13 17.56 -13 23 C-15.85793316 20.14206684 -15.40799941 17.85334416 -15.625 13.875 C-15.73714844 11.95300781 -15.73714844 11.95300781 -15.8515625 9.9921875 C-15.90054687 9.00476563 -15.94953125 8.01734375 -16 7 C-12.78548731 5.39274365 -9.56387464 5.94251815 -6 6 C-6 4.35 -6 2.7 -6 1 C-11.94 1 -17.88 1 -24 1 C-24 0.67 -24 0.34 -24 0 C-7.1070615 -1.33257403 -7.1070615 -1.33257403 0 0 Z " fill="#DDFEF5" transform="translate(364,65)"/>
<path d="M0 0 C2.97 0 5.94 0 9 0 C10.26026798 2.52053595 9.91874445 3.8542098 9.5625 6.625 C9.46066406 7.44226563 9.35882813 8.25953125 9.25390625 9.1015625 C9.17011719 9.72804688 9.08632813 10.35453125 9 11 C5.125 10.125 5.125 10.125 4 9 C3.67 9.66 3.34 10.32 3 11 C1.68 11 0.36 11 -1 11 C-1.07622858 7.03611362 -0.9681648 3.8726592 0 0 Z M3 3 C3 3.99 3 4.98 3 6 C3.99 5.67 4.98 5.34 6 5 C6 4.34 6 3.68 6 3 C5.01 3 4.02 3 3 3 Z " fill="#E4FEF6" transform="translate(348,105)"/>
<path d="M0 0 C-0.1875 1.875 -0.1875 1.875 -1 4 C-3.5625 5.25 -3.5625 5.25 -6 6 C-5.01 6 -4.02 6 -3 6 C-1.3125 7.5 -1.3125 7.5 0 9 C-0.33 9.66 -0.66 10.32 -1 11 C-4.99179743 12.33059914 -7.26317891 11.81502739 -11 10 C-11.49046322 4.60490463 -11.49046322 4.60490463 -9.125 1.6875 C-5.61973989 -1.09608891 -4.28896241 -1.01580689 0 0 Z " fill="#E5FEF7" transform="translate(396,105)"/>
<path d="M0 0 C2.64 0 5.28 0 8 0 C8 0.99 8 1.98 8 3 C7.01 3.33 6.02 3.66 5 4 C6.32 4.66 7.64 5.32 9 6 C9 6.66 9 7.32 9 8 C8.01 8 7.02 8 6 8 C6.99 8.33 7.98 8.66 9 9 C9 9.66 9 10.32 9 11 C5.7 11 2.4 11 -1 11 C-0.67 7.37 -0.34 3.74 0 0 Z " fill="#F0FDF9" transform="translate(401,105)"/>
<path d="M0 0 C2.64 0 5.28 0 8 0 C8 0.99 8 1.98 8 3 C6.35 3 4.7 3 3 3 C3 3.66 3 4.32 3 5 C4.65 5 6.3 5 8 5 C8 5.66 8 6.32 8 7 C7.01 7 6.02 7 5 7 C5 7.66 5 8.32 5 9 C6.32 9 7.64 9 9 9 C9 9.66 9 10.32 9 11 C5.7 11 2.4 11 -1 11 C-0.67 7.37 -0.34 3.74 0 0 Z " fill="#EBFEF6" transform="translate(333,105)"/>
<path d="M0 0 C5.75 0.75 5.75 0.75 8 3 C8.66 2.01 9.32 1.02 10 0 C10.66 0 11.32 0 12 0 C12.33 1.65 12.66 3.3 13 5 C12.01 5.495 12.01 5.495 11 6 C10.27840576 7.64363134 9.60648579 9.31050386 9 11 C7.68 11 6.36 11 5 11 C5 10.34 5 9.68 5 9 C4.34 9 3.68 9 3 9 C2.67 6.69 2.34 4.38 2 2 C1.01 2.33 0.02 2.66 -1 3 C-0.67 2.01 -0.34 1.02 0 0 Z M5 2 C6 5 6 5 6 5 Z " fill="#FAFEFD" transform="translate(360,105)"/>
<path d="M0 0 C0.66 0.33 1.32 0.66 2 1 C1.88648483 2.81325551 1.75887039 4.62563357 1.625 6.4375 C1.55539063 7.44683594 1.48578125 8.45617187 1.4140625 9.49609375 C1.27742188 10.32238281 1.14078125 11.14867188 1 12 C0.01 12.495 0.01 12.495 -1 13 C-3 11.6875 -3 11.6875 -5 10 C-5 9.01 -5 8.02 -5 7 C-6.65 6.67 -8.3 6.34 -10 6 C-9.67 5.34 -9.34 4.68 -9 4 C-7.35 4 -5.7 4 -4 4 C-3.67 3.01 -3.34 2.02 -3 1 C-2.34 1.33 -1.68 1.66 -1 2 C-0.67 1.34 -0.34 0.68 0 0 Z " fill="#FBFDFC" transform="translate(78,61)"/>
<path d="M0 0 C1.2065625 0.0309375 1.2065625 0.0309375 2.4375 0.0625 C2.4375 1.3825 2.4375 2.7025 2.4375 4.0625 C1.7775 4.0625 1.1175 4.0625 0.4375 4.0625 C1.7575 5.0525 3.0775 6.0425 4.4375 7.0625 C4.1075 8.3825 3.7775 9.7025 3.4375 11.0625 C0.15053767 11.86203138 -1.27273192 12.15908936 -4.5625 11.0625 C-4.5625 10.0725 -4.5625 9.0825 -4.5625 8.0625 C-3.2425 8.0625 -1.9225 8.0625 -0.5625 8.0625 C-1.8825 7.0725 -3.2025 6.0825 -4.5625 5.0625 C-3.43829114 0.08386076 -3.43829114 0.08386076 0 0 Z " fill="#E1FDF4" transform="translate(323.5625,104.9375)"/>
<path d="M0 0 C0.99 0 1.98 0 3 0 C4.65 3.63 6.3 7.26 8 11 C2.375 11 2.375 11 -1 9 C-1 9.66 -1 10.32 -1 11 C-1.99 11 -2.98 11 -4 11 C-3.39301257 6.87248551 -1.96189209 3.6678852 0 0 Z " fill="#E2FDF4" transform="translate(257,105)"/>
<path d="M0 0 C1.0625 1.875 1.0625 1.875 2 4 C1.67 4.66 1.34 5.32 1 6 C2.65 6 4.3 6 6 6 C6 4.35 6 2.7 6 1 C6.66 1 7.32 1 8 1 C8 4.63 8 8.26 8 12 C7.34 12 6.68 12 6 12 C6 10.68 6 9.36 6 8 C4.35 8.66 2.7 9.32 1 10 C1 10.66 1 11.32 1 12 C0.01 12 -0.98 12 -2 12 C-2 8.37 -2 4.74 -2 1 C-1.34 0.67 -0.68 0.34 0 0 Z " fill="#D7FEF2" transform="translate(297,104)"/>
<path d="M0 0 C2.64 0 5.28 0 8 0 C8 0.99 8 1.98 8 3 C6.02 3 4.04 3 2 3 C2 3.66 2 4.32 2 5 C3.98 5 5.96 5 8 5 C8 5.66 8 6.32 8 7 C7.01 7.495 7.01 7.495 6 8 C6.66 8.33 7.32 8.66 8 9 C8 9.66 8 10.32 8 11 C5.36 11 2.72 11 0 11 C0 7.37 0 3.74 0 0 Z M2 7 C2 7.66 2 8.32 2 9 C2.66 9 3.32 9 4 9 C4 8.34 4 7.68 4 7 C3.34 7 2.68 7 2 7 Z " fill="#DEFEF5" transform="translate(240,105)"/>
<path d="M0 0 C0.99 0 1.98 0 3 0 C3 1.65 3 3.3 3 5 C4.65 5 6.3 5 8 5 C7.67 4.01 7.34 3.02 7 2 C7.33 1.34 7.66 0.68 8 0 C8.66 0 9.32 0 10 0 C10 3.63 10 7.26 10 11 C9.01 10.67 8.02 10.34 7 10 C7 9.01 7 8.02 7 7 C5.68 7 4.36 7 3 7 C3 8.32 3 9.64 3 11 C2.01 11 1.02 11 0 11 C0 7.37 0 3.74 0 0 Z " fill="#DAFEF2" transform="translate(223,105)"/>
<path d="M0 0 C0.66 0.33 1.32 0.66 2 1 C-5.45214904 8.07386736 -10.61957829 10.4654666 -21.0078125 10.3359375 C-25.39671147 9.84318905 -28.26155891 8.30057913 -32 6 C-29.50907189 4.75453595 -28.58919267 5.2232422 -26 6 C-26 6.66 -26 7.32 -26 8 C-23.43719792 7.85845864 -20.87484515 7.71191438 -18.3125 7.5625 C-17.59126953 7.52318359 -16.87003906 7.48386719 -16.12695312 7.44335938 C-12.33292718 7.21814322 -8.71348508 6.87160695 -5 6 C-4.67 5.01 -4.34 4.02 -4 3 C-3.34 3 -2.68 3 -2 3 C-2 2.34 -2 1.68 -2 1 C-1.34 0.67 -0.68 0.34 0 0 Z " fill="#E0FEF5" transform="translate(125,135)"/>
<path d="M0 0 C2.50600314 2.50600314 2.97054791 4.18594425 3.09765625 7.69921875 C3.08605469 8.68535156 3.07445313 9.67148437 3.0625 10.6875 C3.05347656 11.68136719 3.04445313 12.67523438 3.03515625 13.69921875 C3.02355469 14.45847656 3.01195313 15.21773437 3 16 C3.66 16 4.32 16 5 16 C5.33 14.02 5.66 12.04 6 10 C6.33 10 6.66 10 7 10 C6.64989059 18.35010941 6.64989059 18.35010941 3.9375 21.0625 C2.9784375 21.5265625 2.9784375 21.5265625 2 22 C1.67 21.34 1.34 20.68 1 20 C0.01 20.66 -0.98 21.32 -2 22 C-2 19 -2 19 -0.5 17.25 C2.74544023 12.38183965 0.7765454 5.53288597 0 0 Z " fill="#E1FEF6" transform="translate(78,42)"/>
<path d="M0 0 C2.6881249 -0.08164159 5.373723 -0.14079668 8.0625 -0.1875 C8.81466797 -0.21263672 9.56683594 -0.23777344 10.34179688 -0.26367188 C17.62182 -0.35821763 22.8269223 1.51440339 28.375 6.4375 C29.04273438 7.01371094 29.71046875 7.58992188 30.3984375 8.18359375 C32.12967587 10.14707141 32.60649608 11.44222455 33 14 C31.85073734 13.04578192 30.70569459 12.08647955 29.5625 11.125 C28.92441406 10.59132813 28.28632813 10.05765625 27.62890625 9.5078125 C26 8 26 8 25 6 C20.35148168 3.63016713 17.2788223 2.75447338 12 3 C11.34 2.67 10.68 2.34 10 2 C8.29297265 1.93003986 6.58331997 1.91559846 4.875 1.9375 C3.96492187 1.94652344 3.05484375 1.95554688 2.1171875 1.96484375 C1.06917969 1.98224609 1.06917969 1.98224609 0 2 C0 1.34 0 0.68 0 0 Z " fill="#E1FEF5" transform="translate(137,55)"/>
<path d="M0 0 C0 0.99 0 1.98 0 3 C-0.99 3 -1.98 3 -3 3 C-3 5.64 -3 8.28 -3 11 C-3.99 11 -4.98 11 -6 11 C-6.33 8.69 -6.66 6.38 -7 4 C-7.99 3.67 -8.98 3.34 -10 3 C-10 2.01 -10 1.02 -10 0 C-6.7169902 -1.6415049 -3.57454967 -0.51888624 0 0 Z " fill="#F2FDF8" transform="translate(290,105)"/>
<path d="M0 0 C0.99 0.33 1.98 0.66 3 1 C2.98428955 1.87213135 2.9685791 2.7442627 2.95239258 3.64282227 C2.90099179 6.90623018 2.86351907 10.16920232 2.83520508 13.43286133 C2.82020123 14.84015734 2.79979137 16.24740724 2.77368164 17.65454102 C2.73692335 19.68777907 2.72019016 21.72039432 2.70703125 23.75390625 C2.6913208 24.97408447 2.67561035 26.1942627 2.65942383 27.45141602 C3.16794218 32.7498492 5.03537644 36.55306467 8 41 C7.01 41.495 7.01 41.495 6 42 C5.34 40.35 4.68 38.7 4 37 C3.01 37 2.02 37 1 37 C0.67 24.79 0.34 12.58 0 0 Z " fill="#DFFEF6" transform="translate(92,91)"/>
<path d="M0 0 C0.66 0 1.32 0 2 0 C2.28875 0.7425 2.5775 1.485 2.875 2.25 C3.87836606 4.91045241 3.87836606 4.91045241 5.125 6.84375 C6.2743794 9.67614924 5.82287531 11.30341536 5.125 14.25 C4.92132813 15.14203125 4.71765625 16.0340625 4.5078125 16.953125 C4.34023437 17.62859375 4.17265625 18.3040625 4 19 C3.34 19 2.68 19 2 19 C1.93941406 18.26394531 1.87882812 17.52789062 1.81640625 16.76953125 C1.73261719 15.79371094 1.64882812 14.81789063 1.5625 13.8125 C1.48128906 12.84957031 1.40007812 11.88664062 1.31640625 10.89453125 C1.02120361 8.19397381 0.70400608 5.62487034 0 3 C-0.66 2.67 -1.32 2.34 -2 2 C-1.34 1.34 -0.68 0.68 0 0 Z " fill="#F7FDFB" transform="translate(79,39)"/>
<path d="M0 0 C0.66 0 1.32 0 2 0 C2.66 1.98 3.32 3.96 4 6 C4.66 6 5.32 6 6 6 C6.061875 6.928125 6.061875 6.928125 6.125 7.875 C6.41375 8.57625 6.7025 9.2775 7 10 C9.79101437 11.2086563 9.79101437 11.2086563 13 12 C13.78375 12.37125 14.5675 12.7425 15.375 13.125 C17.92633597 13.97544532 19.481731 14.06752877 22.125 14 C26 14 26 14 29 16 C21.37090237 17.49335528 15.8166197 16.85181541 9 13 C6.125 10.5625 6.125 10.5625 4 8 C3.236875 7.13375 2.47375 6.2675 1.6875 5.375 C0 3 0 3 0 0 Z " fill="#E7FDF6" transform="translate(43,87)"/>
<path d="M0 0 C0.66 0.33 1.32 0.66 2 1 C2 3.97 2 6.94 2 10 C3.65 10 5.3 10 7 10 C7 10.66 7 11.32 7 12 C4.03 12 1.06 12 -2 12 C-1.85962479 10.18706911 -1.71255111 8.3746557 -1.5625 6.5625 C-1.48128906 5.55316406 -1.40007812 4.54382813 -1.31640625 3.50390625 C-1 1 -1 1 0 0 Z " fill="#E5FEF6" transform="translate(270,104)"/>
<path d="M0 0 C1.65 0 3.3 0 5 0 C5 1.98 5 3.96 5 6 C6.65 6 8.3 6 10 6 C10 6.33 10 6.66 10 7 C7.69 7.33 5.38 7.66 3 8 C3 6.02 3 4.04 3 2 C2.34 2 1.68 2 1 2 C1 8.6 1 15.2 1 22 C0.67 22 0.34 22 0 22 C0 14.74 0 7.48 0 0 Z " fill="#D7FEF5" transform="translate(332,65)"/>
<path d="M0 0 C0.99 0 1.98 0 3 0 C4.4783226 2.95664519 4.06032783 5.74229737 4 9 C2.02 9 0.04 9 -2 9 C-2 7.02 -2 5.04 -2 3 C-1.34 3 -0.68 3 0 3 C0 2.01 0 1.02 0 0 Z " fill="#F8FCFB" transform="translate(55,34)"/>
<path d="M0 0 C0.33 0 0.66 0 1 0 C1 2.64 1 5.28 1 8 C-0.32 8.33 -1.64 8.66 -3 9 C-2.6390625 9.48210937 -2.278125 9.96421875 -1.90625 10.4609375 C-1.4421875 11.09257813 -0.978125 11.72421875 -0.5 12.375 C-0.0359375 13.00148438 0.428125 13.62796875 0.90625 14.2734375 C2 16 2 16 2 18 C-1.3 18 -4.6 18 -8 18 C-8.33 17.01 -8.66 16.02 -9 15 C-8.34 15 -7.68 15 -7 15 C-7 15.66 -7 16.32 -7 17 C-5.02 17 -3.04 17 -1 17 C-1.33 16.01 -1.66 15.02 -2 14 C-2.66 13.67 -3.32 13.34 -4 13 C-4 11.02 -4 9.04 -4 7 C-3.01 7 -2.02 7 -1 7 C-0.67 4.69 -0.34 2.38 0 0 Z " fill="#E3FEF6" transform="translate(412,74)"/>
<path d="M0 0 C0.99 0 1.98 0 3 0 C4.28317892 3.84953676 4.06643637 6.94738135 4 11 C2.68 11 1.36 11 0 11 C-1.28571429 3.57142857 -1.28571429 3.57142857 0 0 Z " fill="#EAFEF6" transform="translate(377,105)"/>
<path d="M0 0 C1.39456452 0.00667256 2.78911118 0.01863093 4.18359375 0.03515625 C4.89451172 0.03966797 5.60542969 0.04417969 6.33789062 0.04882812 C8.09899388 0.06064761 9.86005411 0.07858362 11.62109375 0.09765625 C11.62109375 0.42765625 11.62109375 0.75765625 11.62109375 1.09765625 C5.18609375 1.59265625 5.18609375 1.59265625 -1.37890625 2.09765625 C-1.70890625 9.35765625 -2.03890625 16.61765625 -2.37890625 24.09765625 C-2.70890625 24.09765625 -3.03890625 24.09765625 -3.37890625 24.09765625 C-3.57477535 20.28553722 -3.7592019 16.47295091 -3.94140625 12.66015625 C-3.99748047 11.57154297 -4.05355469 10.48292969 -4.11132812 9.36132812 C-4.15966797 8.32685547 -4.20800781 7.29238281 -4.2578125 6.2265625 C-4.30494385 5.2682251 -4.3520752 4.3098877 -4.40063477 3.32250977 C-4.36502887 -0.32329347 -3.74164071 0.1081399 0 0 Z " fill="#DCFEF7" transform="translate(285.37890625,64.90234375)"/>
<path d="M0 0 C6.6 0.99 13.2 1.98 20 3 C20 3.33 20 3.66 20 4 C18.56359829 4.19573608 17.12580496 4.38127816 15.6875 4.5625 C14.88699219 4.66691406 14.08648437 4.77132812 13.26171875 4.87890625 C11 5 11 5 8 4 C8 4.66 8 5.32 8 6 C6.02 6 4.04 6 2 6 C2 5.67 2 5.34 2 5 C3.65 5 5.3 5 7 5 C6.10664203 2.64214682 6.10664203 2.64214682 2.9375 1.875 C1.968125 1.58625 0.99875 1.2975 0 1 C0 0.67 0 0.34 0 0 Z " fill="#DFFDF6" transform="translate(139,81)"/>
<path d="M0 0 C2.97 0.495 2.97 0.495 6 1 C5.7525 1.7425 5.505 2.485 5.25 3.25 C5.1675 4.1575 5.085 5.065 5 6 C6.83358335 8.33454661 6.83358335 8.33454661 9 10 C7.68 10.33 6.36 10.66 5 11 C5 10.34 5 9.68 5 9 C4.34 9 3.68 9 3 9 C2.67 6.69 2.34 4.38 2 2 C1.01 2.33 0.02 2.66 -1 3 C-0.67 2.01 -0.34 1.02 0 0 Z " fill="#E6FDF5" transform="translate(360,105)"/>
<path d="M0 0 C0.66 0.33 1.32 0.66 2 1 C0.71186658 1.83878455 -0.58063256 2.67086783 -1.875 3.5 C-2.59429687 3.9640625 -3.31359375 4.428125 -4.0546875 4.90625 C-6 6 -6 6 -8 6 C-8.28875 6.7425 -8.5775 7.485 -8.875 8.25 C-9.82302644 10.56739797 -10.84845911 12.77917115 -12 15 C-12.66 15 -13.32 15 -14 15 C-12.32698874 8.46004688 -8.96975707 5.06649805 -3.3125 1.625 C-2.219375 1.08875 -1.12625 0.5525 0 0 Z " fill="#E7FEF7" transform="translate(99,15)"/>
<path d="M0 0 C2.64 0 5.28 0 8 0 C8 0.99 8 1.98 8 3 C6.35 3 4.7 3 3 3 C2.67 4.32 2.34 5.64 2 7 C2 6.34 2 5.68 2 5 C1.34 5 0.68 5 0 5 C0 3.35 0 1.7 0 0 Z " fill="#E0FDF5" transform="translate(401,105)"/>
<path d="M0 0 C2.64 0 5.28 0 8 0 C8 0.99 8 1.98 8 3 C6.35 3 4.7 3 3 3 C2.67 3.66 2.34 4.32 2 5 C1.34 5 0.68 5 0 5 C0 3.35 0 1.7 0 0 Z " fill="#DCFEF4" transform="translate(333,105)"/>
<path d="M0 0 C3.17218843 3.62535821 4.42902597 7.51150278 6 12 C2.7 12 -0.6 12 -4 12 C-4 11.67 -4 11.34 -4 11 C-0.535 10.505 -0.535 10.505 3 10 C2.2575 8.63875 2.2575 8.63875 1.5 7.25 C0 4 0 4 0 0 Z " fill="#E0FEF6" transform="translate(239,80)"/>
<path d="M0 0 C1.65 1.32 3.3 2.64 5 4 C5 4.66 5 5.32 5 6 C4.01 6 3.02 6 2 6 C1.67 9.3 1.34 12.6 1 16 C0.67 16 0.34 16 0 16 C0 10.72 0 5.44 0 0 Z " fill="#DAFEF6" transform="translate(120,108)"/>
<path d="M0 0 C4.16216275 -0.32644414 6.36313462 -0.40650982 9.9375 1.875 C12 4 12 4 12 6 C11.34 6 10.68 6 10 6 C10 5.34 10 4.68 10 4 C8.9171875 4.0928125 8.9171875 4.0928125 7.8125 4.1875 C4.45655067 3.96377004 2.71059118 2.93613656 0 1 C0 0.67 0 0.34 0 0 Z " fill="#F9FCFA" transform="translate(101,81)"/>
<path d="M0 0 C0.66 0 1.32 0 2 0 C2 0.66 2 1.32 2 2 C2.66 2.33 3.32 2.66 4 3 C3.34 5.31 2.68 7.62 2 10 C1.01 9.67 0.02 9.34 -1 9 C-0.67 6.03 -0.34 3.06 0 0 Z " fill="#F9FCFB" transform="translate(51,44)"/>
<path d="M0 0 C0.99 0.33 1.98 0.66 3 1 C3 1.66 3 2.32 3 3 C3.928125 3.2165625 3.928125 3.2165625 4.875 3.4375 C7 4 7 4 9 5 C9 5.66 9 6.32 9 7 C3.54545455 7.36363636 3.54545455 7.36363636 1.125 5.75 C0 4 0 4 0 0 Z " fill="#F7FEFB" transform="translate(128,110)"/>
<path d="M0 0 C1.65 0 3.3 0 5 0 C5 0.99 5 1.98 5 3 C4.01 3 3.02 3 2 3 C2 5.64 2 8.28 2 11 C1.01 11 0.02 11 -1 11 C-1 9.35 -1 7.7 -1 6 C-0.67 6 -0.34 6 0 6 C0 4.02 0 2.04 0 0 Z " fill="#D7FEF3" transform="translate(285,105)"/>
<path d="M0 0 C0.99 0.33 1.98 0.66 3 1 C3.8359375 2.9609375 3.8359375 2.9609375 4.375 5.375 C4.56835938 6.16648437 4.76171875 6.95796875 4.9609375 7.7734375 C5 10 5 10 3.5390625 11.7890625 C3.03117188 12.18867187 2.52328125 12.58828125 2 13 C2.04125 11.783125 2.0825 10.56625 2.125 9.3125 C2.13754508 5.78105873 1.59998217 3.19996434 0 0 Z " fill="#E7FEF3" transform="translate(209,68)"/>
<path d="M0 0 C0.33 1.32 0.66 2.64 1 4 C-1.31 3.67 -3.62 3.34 -6 3 C-6.33 2.01 -6.66 1.02 -7 0 C-3.86650268 -1.04449911 -3.01031744 -0.93423645 0 0 Z " fill="#FCFDFD" transform="translate(99,82)"/>
<path d="M0 0 C2.1875 -0.375 2.1875 -0.375 5 0 C6.99022836 1.83961648 8.38989899 3.79186148 10 6 C9.67 6.66 9.34 7.32 9 8 C7.68 7.34 6.36 6.68 5 6 C5 4.68 5 3.36 5 2 C3.35 1.67 1.7 1.34 0 1 C0 0.67 0 0.34 0 0 Z " fill="#E0FEF6" transform="translate(310,65)"/>
<path d="M0 0 C-0.99 1.485 -0.99 1.485 -2 3 C-3.65 2.67 -5.3 2.34 -7 2 C-7.33 2.99 -7.66 3.98 -8 5 C-7.67 3.35 -7.34 1.7 -7 0 C-3.86650268 -1.04449911 -3.01031744 -0.93423645 0 0 Z " fill="#F8FEFC" transform="translate(358,106)"/>
<path d="M0 0 C0.66 0 1.32 0 2 0 C2.33 1.65 2.66 3.3 3 5 C1.68 5.99 0.36 6.98 -1 8 C-1 5.16032769 -0.59732819 2.76264289 0 0 Z " fill="#E8FDF7" transform="translate(370,105)"/>
<path d="M0 0 C-0.33 0.66 -0.66 1.32 -1 2 C-3.88211302 2.96070434 -5.69850044 3.10581883 -8.6875 3.0625 C-9.89986328 3.04896484 -9.89986328 3.04896484 -11.13671875 3.03515625 C-12.05904297 3.01775391 -12.05904297 3.01775391 -13 3 C-13 2.67 -13 2.34 -13 2 C-4.57142857 -0.28571429 -4.57142857 -0.28571429 0 0 Z " fill="#E6FEF8" transform="translate(383,83)"/>
<path d="M0 0 C0.86172797 2.41283832 1.08724082 3.69465714 0.375 6.1875 C-1 8 -1 8 -3.625 8.75 C-4.40875 8.8325 -5.1925 8.915 -6 9 C-4.73046875 7.53515625 -3.4609375 6.0703125 -2.19140625 4.60546875 C-0.79128769 2.89287029 -0.79128769 2.89287029 0 0 Z " fill="#E9FEF4" transform="translate(119,124)"/>
<path d="M0 0 C1.32 0.66 2.64 1.32 4 2 C3.01 3.485 3.01 3.485 2 5 C1.34 5 0.68 5 0 5 C-0.66 5.66 -1.32 6.32 -2 7 C-1.125 2.25 -1.125 2.25 0 0 Z " fill="#F5FEFB" transform="translate(387,108)"/>
<path d="M0 0 C0.99 0 1.98 0 3 0 C3 1.98 3 3.96 3 6 C2.01 6.495 2.01 6.495 1 7 C0.67 4.69 0.34 2.38 0 0 Z " fill="#E8FEF8" transform="translate(223,105)"/>
<path d="M0 0 C0.99 0 1.98 0 3 0 C3 0.66 3 1.32 3 2 C2.01 2 1.02 2 0 2 C0 1.34 0 0.68 0 0 Z " fill="#FFFFFF" transform="translate(373,105)"/>
<path d="M0 0 C1 4 1 4 1 4 Z " fill="#A9FFFF" transform="translate(228,105)"/>
<path d="M0 0 C0.99 0.495 0.99 0.495 2 1 C1.01 1.495 1.01 1.495 0 2 C0 1.34 0 0.68 0 0 Z " fill="#FFFFFF" transform="translate(299,105)"/>
<path d="" fill="#FFFFFF" transform="translate(0,0)"/>
<path d="" fill="#00FF00" transform="translate(0,0)"/>
<path d="" fill="#00FF00" transform="translate(0,0)"/>
<path d="" fill="#00FF00" transform="translate(0,0)"/>
<path d="" fill="#00FF00" transform="translate(0,0)"/>
<path d="" fill="#00FF00" transform="translate(0,0)"/>
<path d="" fill="#00FF00" transform="translate(0,0)"/>
<path d="" fill="#00FF00" transform="translate(0,0)"/>
<path d="" fill="#AAFFFF" transform="translate(0,0)"/>
<path d="" fill="#7FFFFF" transform="translate(0,0)"/>
<path d="" fill="#FFFFFF" transform="translate(0,0)"/>
<path d="" fill="#00FF00" transform="translate(0,0)"/>
<path d="" fill="#00FF00" transform="translate(0,0)"/>
<path d="" fill="#00FF00" transform="translate(0,0)"/>
<path d="" fill="#00FF00" transform="translate(0,0)"/>
<path d="" fill="#00FF00" transform="translate(0,0)"/>
<path d="" fill="#00FF00" transform="translate(0,0)"/>
<path d="" fill="#00FF00" transform="translate(0,0)"/>
<path d="" fill="#00FF00" transform="translate(0,0)"/>
<path d="" fill="#00FF00" transform="translate(0,0)"/>
<path d="" fill="#00FF00" transform="translate(0,0)"/>
<path d="" fill="#00FF00" transform="translate(0,0)"/>
<path d="" fill="#00FF00" transform="translate(0,0)"/>
<path d="" fill="#00FF00" transform="translate(0,0)"/>
<path d="" fill="#00FF00" transform="translate(0,0)"/>
<path d="" fill="#00FF00" transform="translate(0,0)"/>
<path d="" fill="#00FF00" transform="translate(0,0)"/>
<path d="" fill="#00FF00" transform="translate(0,0)"/>
<path d="" fill="#00FF00" transform="translate(0,0)"/>
<path d="" fill="#00FF00" transform="translate(0,0)"/>
</svg>
